# xmcd CD database file
#
# Track frame offsets:
#	150
#	26802
#	46760
#	68362
#	87325
#	104917
#	126637
#	151065
#
# Disc length: 2217 seconds
#
# Revision: 2
# Processed by: cddbd v1.5PL3 Copyright (c) Steve Scherf et al.
# Submitted via: CDex 1.50
#
DISCID=6608a708
DTITLE=John Kaizan Neptune - Two In Flightn
DYEAR=1982
DGENRE=New Age
TTITLE0=Sampaguita
TTITLE1=Hopeful
TTITLE2=Open Eyes
TTITLE3=What Does It Take
TTITLE4=Simple Happy Song
TTITLE5=Soaring Mosaic
TTITLE6=Tsuru(Cranes)
TTITLE7=Mountain Path
EXTD=YEAR: 1982
EXTT0=
EXTT1=
EXTT2=
EXTT3=
EXTT4=
EXTT5=
EXTT6=
EXTT7=
PLAYORDER=
